<svg xmlns="http://www.w3.org/2000/svg" viewBox="0 0 96 96" role="img" aria-labelledby="title desc">
  <title id="title">Minimal line portrait</title>
  <desc id="desc">A simple flat line portrait with dark side-parted hair, clear glasses, eyebrows, eyes, and mouth.</desc>
  <rect width="96" height="96" rx="18" fill="#fff"/>
  <path d="M25 47c-2-15 8-27 24-27 15 0 24 9 23 24-1 5-2 11-3 16-2 10-9 18-20 18-12 0-20-8-23-19-1-4-1-8-1-12z" fill="#fbf4e9" stroke="#1f2428" stroke-width="2.4" stroke-linecap="round" stroke-linejoin="round"/>
  <path d="M23 42c2-13 12-23 27-24 11 0 20 6 22 18-7-6-15-8-24-7-12 2-19 7-25 13z" fill="#1f2428" stroke="#1f2428" stroke-width="2.4" stroke-linecap="round" stroke-linejoin="round"/>
  <path d="M29 43c9-10 23-15 37-8" fill="none" stroke="#1f2428" stroke-width="2.2" stroke-linecap="round"/>
  <path d="M38 25c9 2 18 3 28 12" fill="none" stroke="#fbf4e9" stroke-width="2" stroke-linecap="round" opacity=".55"/>
  <path d="M30 47c3-3 9-4 14-2" fill="none" stroke="#1f2428" stroke-width="2.2" stroke-linecap="round"/>
  <path d="M55 45c4-2 10-1 14 2" fill="none" stroke="#1f2428" stroke-width="2.2" stroke-linecap="round"/>
  <path d="M31 50c4-4 14-4 18 0 3 3 2 9-2 11-4 2-11 1-14-2-3-3-4-6-2-9z" fill="none" stroke="#8fa3ad" stroke-width="2.4" stroke-linecap="round" stroke-linejoin="round"/>
  <path d="M54 50c4-4 14-4 18 0 3 3 2 9-2 11-4 2-11 1-14-2-3-3-4-6-2-9z" fill="none" stroke="#8fa3ad" stroke-width="2.4" stroke-linecap="round" stroke-linejoin="round"/>
  <path d="M49 53h5" fill="none" stroke="#8fa3ad" stroke-width="2.4" stroke-linecap="round"/>
  <path d="M36 53c2 1 4 1 6 0" fill="none" stroke="#1f2428" stroke-width="2" stroke-linecap="round"/>
  <path d="M60 53c2 1 4 1 6 0" fill="none" stroke="#1f2428" stroke-width="2" stroke-linecap="round"/>
  <path d="M51 54c-1 4-2 7-4 10 2 2 5 2 7 1" fill="none" stroke="#1f2428" stroke-width="1.8" stroke-linecap="round" stroke-linejoin="round" opacity=".72"/>
  <path d="M40 70c5 3 14 3 19-1" fill="none" stroke="#1f2428" stroke-width="2.2" stroke-linecap="round"/>
  <path d="M23 52c-5 0-6 8-1 12" fill="none" stroke="#1f2428" stroke-width="2.2" stroke-linecap="round"/>
  <path d="M73 49c4 3 3 10-1 14" fill="none" stroke="#1f2428" stroke-width="2.2" stroke-linecap="round"/>
  <path d="M29 83c8-6 33-6 41 0" fill="none" stroke="#5a829b" stroke-width="2.2" stroke-linecap="round"/>
</svg>
